<svg width="778" height="150" viewBox="0 0 778 150" fill="none" xmlns="http://www.w3.org/2000/svg">
<path d="M34.9108 50.1917C18.1387 61.6777 -0.19165 84.7839 0.825665 111.748C1.85926 119.887 3.89419 124.974 11.5091 131.08C15.519 134.296 25.2449 139.218 34.9108 137.694L46.1029 135.15C53.2617 134.036 55.9572 134.965 59.8387 137.694C64.8854 141.946 67.8443 144.005 73.5745 146.851C85.7841 152.915 94.9894 149.867 100.537 140.746C113.256 120.904 113.764 72.0637 92.9063 50.6981C75.6094 34.4193 58.3713 34.1405 34.9108 50.1917Z" fill="black"/>
<circle cx="57.3488" cy="16.5773" r="16.5773" fill="black"/>
<path d="M216.352 70.788C216.352 76.8034 215.317 82.3361 213.247 87.386C211.177 92.436 208.293 96.8176 204.597 100.531C200.974 104.17 196.649 107.029 191.621 109.108C186.668 111.188 181.271 112.227 175.43 112.227C169.589 112.227 164.155 111.188 159.128 109.108C154.174 107.029 149.849 104.17 146.152 100.531C142.53 96.8176 139.683 92.436 137.613 87.386C135.543 82.3361 134.508 76.8034 134.508 70.788C134.508 64.7726 135.543 59.2399 137.613 54.19C139.683 49.14 142.53 44.7956 146.152 41.1566C149.849 37.4434 154.174 34.5471 159.128 32.4677C164.155 30.3883 169.589 29.3486 175.43 29.3486C181.271 29.3486 186.668 30.3883 191.621 32.4677C196.649 34.5471 200.974 37.4434 204.597 41.1566C208.293 44.7956 211.177 49.14 213.247 54.19C215.317 59.2399 216.352 64.7726 216.352 70.788ZM207.924 70.788C207.924 66.1836 207.184 61.802 205.706 57.6433C204.227 53.4845 202.083 49.8455 199.274 46.7264C196.464 43.5331 193.026 41.0081 188.96 39.1515C184.967 37.2949 180.457 36.3666 175.43 36.3666C170.403 36.3666 165.856 37.2949 161.789 39.1515C157.797 41.0081 154.396 43.5331 151.586 46.7264C148.777 49.8455 146.633 53.4845 145.154 57.6433C143.676 61.802 142.936 66.1836 142.936 70.788C142.936 75.3924 143.676 79.774 145.154 83.9328C146.633 88.0915 148.777 91.7305 151.586 94.8496C154.396 97.9687 157.797 100.457 161.789 102.313C165.856 104.17 170.403 105.098 175.43 105.098C180.457 105.098 184.967 104.17 188.96 102.313C193.026 100.457 196.464 97.9687 199.274 94.8496C202.083 91.7305 204.227 88.0915 205.706 83.9328C207.184 79.774 207.924 75.3924 207.924 70.788Z" fill="black"/>
<path d="M240.042 136.957H232.5V58.0888H240.042V67.1119H240.374C242.518 63.6958 245.365 61.1337 248.914 59.4256C252.536 57.6433 256.196 56.7521 259.893 56.7521C263.959 56.7521 267.619 57.4576 270.872 58.8686C274.199 60.2796 277.008 62.2105 279.3 64.6612C281.666 67.1119 283.477 70.0082 284.734 73.3501C286.065 76.692 286.73 80.2938 286.73 84.1555C286.73 88.0173 286.065 91.6191 284.734 94.961C283.477 98.3029 281.666 101.199 279.3 103.65C277.008 106.101 274.199 108.031 270.872 109.442C267.619 110.853 263.959 111.559 259.893 111.559C256.196 111.559 252.536 110.705 248.914 108.997C245.365 107.215 242.518 104.69 240.374 101.422H240.042V136.957ZM278.746 84.1555C278.746 81.2592 278.302 78.5486 277.415 76.0236C276.528 73.4244 275.234 71.1965 273.533 69.3399C271.907 67.409 269.874 65.8866 267.434 64.7726C264.994 63.6586 262.222 63.1017 259.116 63.1017C256.233 63.1017 253.571 63.6586 251.132 64.7726C248.692 65.8123 246.585 67.2976 244.81 69.2285C243.036 71.0851 241.631 73.313 240.596 75.9122C239.635 78.4372 239.154 81.185 239.154 84.1555C239.154 87.1261 239.635 89.911 240.596 92.5103C241.631 95.0352 243.036 97.226 244.81 99.0826C246.585 100.939 248.692 102.425 251.132 103.538C253.571 104.578 256.233 105.098 259.116 105.098C262.222 105.098 264.994 104.578 267.434 103.538C269.874 102.425 271.907 100.939 273.533 99.0826C275.234 97.1518 276.528 94.9238 277.415 92.3989C278.302 89.7996 278.746 87.0518 278.746 84.1555Z" fill="black"/>
<path d="M342.487 80.1453C342.266 75.2439 340.676 71.1965 337.719 68.0031C334.835 64.7355 330.695 63.1017 325.298 63.1017C322.784 63.1017 320.455 63.5844 318.311 64.5498C316.167 65.441 314.282 66.7035 312.655 68.3373C311.029 69.8968 309.735 71.7163 308.774 73.7957C307.813 75.8008 307.258 77.9174 307.11 80.1453H342.487ZM350.139 82.596C350.139 83.1158 350.139 83.6728 350.139 84.2669C350.139 84.8611 350.102 85.4923 350.029 86.1607H306.999C307.073 88.7599 307.591 91.2106 308.552 93.5128C309.513 95.815 310.844 97.8201 312.544 99.5282C314.245 101.236 316.241 102.61 318.533 103.65C320.825 104.615 323.302 105.098 325.963 105.098C329.882 105.098 333.246 104.207 336.055 102.425C338.939 100.568 341.12 98.4514 342.598 96.0749L348.254 100.531C345.149 104.467 341.711 107.289 337.94 108.997C334.244 110.705 330.251 111.559 325.963 111.559C322.119 111.559 318.533 110.891 315.206 109.554C311.953 108.143 309.143 106.212 306.777 103.761C304.412 101.311 302.526 98.4143 301.122 95.0724C299.791 91.7305 299.125 88.0915 299.125 84.1555C299.125 80.2196 299.791 76.5806 301.122 73.2387C302.452 69.8968 304.301 67.0005 306.667 64.5498C309.032 62.0991 311.805 60.2054 314.984 58.8686C318.163 57.4576 321.601 56.7521 325.298 56.7521C329.364 56.7521 332.95 57.4576 336.055 58.8686C339.16 60.2054 341.748 62.062 343.818 64.4384C345.888 66.7406 347.441 69.4513 348.476 72.5703C349.585 75.6894 350.139 79.0313 350.139 82.596Z" fill="black"/>
<path d="M373.125 58.0888C373.273 59.4999 373.384 61.0594 373.458 62.7675C373.532 64.4756 373.569 65.8866 373.569 67.0005H373.791C375.269 63.9557 377.672 61.505 380.999 59.6484C384.326 57.7175 387.838 56.7521 391.535 56.7521C398.115 56.7521 403.031 58.7201 406.284 62.6561C409.611 66.5921 411.275 71.7906 411.275 78.2515V110.222H403.734V81.3706C403.734 78.6229 403.512 76.135 403.068 73.9071C402.625 71.6792 401.848 69.7854 400.739 68.2259C399.704 66.5921 398.263 65.3296 396.414 64.4384C394.64 63.5473 392.385 63.1017 389.649 63.1017C387.653 63.1017 385.694 63.5101 383.772 64.327C381.923 65.1439 380.26 66.4064 378.781 68.1145C377.302 69.7483 376.12 71.8648 375.232 74.4641C374.345 76.9891 373.902 79.9968 373.902 83.4872V110.222H366.36V69.5626C366.36 68.1516 366.323 66.3322 366.249 64.1042C366.175 61.8763 366.065 59.8712 365.917 58.0888H373.125Z" fill="black"/>
<path d="M431.243 31.3538H439.228V65.5524H482.035V31.3538H490.02V110.222H482.035V72.9045H439.228V110.222H431.243V31.3538Z" fill="black"/>
<path d="M548.107 110.222C547.959 108.811 547.848 107.252 547.774 105.544C547.7 103.836 547.663 102.425 547.663 101.311H547.441C545.963 104.355 543.56 106.843 540.233 108.774C536.906 110.631 533.394 111.559 529.697 111.559C523.117 111.559 518.164 109.591 514.837 105.655C511.584 101.719 509.957 96.5205 509.957 90.0595V58.0888H517.498V86.9404C517.498 89.6882 517.72 92.1761 518.164 94.404C518.607 96.6319 519.347 98.5628 520.382 100.197C521.491 101.756 522.932 102.981 524.707 103.873C526.555 104.764 528.847 105.209 531.583 105.209C533.579 105.209 535.501 104.801 537.349 103.984C539.272 103.167 540.972 101.942 542.451 100.308C543.929 98.5999 545.112 96.4834 546 93.9584C546.887 91.3592 547.33 88.3143 547.33 84.8239V58.0888H554.872V98.7484C554.872 100.159 554.909 101.979 554.983 104.207C555.056 106.435 555.167 108.44 555.315 110.222H548.107Z" fill="black"/>
<path d="M582.27 67.0005C583.749 63.9557 586.004 61.505 589.035 59.6484C592.14 57.7175 595.578 56.7521 599.349 56.7521C600.753 56.7521 602.195 56.9006 603.674 57.1977C605.226 57.4947 606.705 58.0888 608.11 58.98C609.588 59.7969 610.919 60.9109 612.102 62.3219C613.359 63.7329 614.431 65.5524 615.318 67.7803C617.093 64.2156 619.496 61.505 622.527 59.6484C625.632 57.7175 629.292 56.7521 633.506 56.7521C640.086 56.7521 645.003 58.7201 648.256 62.6561C651.583 66.5921 653.246 71.7906 653.246 78.2515V110.222H645.705V81.3706C645.705 75.8751 644.67 71.4564 642.6 68.1145C640.604 64.7726 637.166 63.1017 632.286 63.1017C629.551 63.1017 627.222 63.6586 625.299 64.7726C623.451 65.8866 621.935 67.3719 620.752 69.2285C619.643 71.0108 618.83 73.0531 618.313 75.3552C617.795 77.6574 617.536 80.0339 617.536 82.4846V110.222H609.995V79.8111C609.995 77.2861 609.81 74.9839 609.441 72.9045C609.071 70.8251 608.406 69.0799 607.444 67.6689C606.557 66.1836 605.3 65.0697 603.674 64.327C602.047 63.5101 599.977 63.1017 597.463 63.1017C595.689 63.1017 593.878 63.5101 592.029 64.327C590.255 65.1439 588.628 66.4064 587.15 68.1145C585.745 69.7483 584.599 71.8648 583.712 74.4641C582.825 76.9891 582.381 79.9968 582.381 83.4872V110.222H574.84V69.5626C574.84 68.1516 574.803 66.3322 574.729 64.1042C574.655 61.8763 574.544 59.8712 574.396 58.0888H581.605C581.753 59.4999 581.863 61.0594 581.937 62.7675C582.011 64.4756 582.048 65.8866 582.048 67.0005H582.27Z" fill="black"/>
<path d="M705.459 76.5806C705.459 72.0505 704.276 68.6715 701.911 66.4436C699.545 64.2156 696.107 63.1017 691.597 63.1017C688.492 63.1017 685.608 63.6586 682.947 64.7726C680.285 65.8866 678.03 67.3719 676.182 69.2285L671.968 64.2156C674.112 62.062 676.921 60.2796 680.396 58.8686C683.945 57.4576 687.937 56.7521 692.373 56.7521C695.183 56.7521 697.807 57.1605 700.247 57.9774C702.687 58.7201 704.831 59.8712 706.679 61.4307C708.528 62.9903 709.969 64.9583 711.004 67.3347C712.039 69.7112 712.557 72.4961 712.557 75.6894V98.5257C712.557 100.531 712.631 102.61 712.779 104.764C712.927 106.917 713.148 108.737 713.444 110.222H706.679C706.458 108.96 706.273 107.586 706.125 106.101C705.977 104.615 705.903 103.167 705.903 101.756H705.681C703.315 105.247 700.617 107.772 697.585 109.331C694.628 110.816 691.042 111.559 686.828 111.559C684.832 111.559 682.762 111.262 680.618 110.668C678.548 110.148 676.625 109.257 674.851 107.994C673.15 106.732 671.709 105.098 670.526 103.093C669.417 101.088 668.862 98.637 668.862 95.7407C668.862 91.7305 669.86 88.5743 671.857 86.2721C673.927 83.8956 676.662 82.1504 680.063 81.0365C683.464 79.8482 687.346 79.1056 691.708 78.8085C696.144 78.4372 700.728 78.2515 705.459 78.2515V76.5806ZM703.241 84.1555C700.136 84.1555 696.994 84.3041 693.815 84.6011C690.71 84.8239 687.863 85.3438 685.276 86.1607C682.762 86.9033 680.692 88.0173 679.065 89.5026C677.439 90.9878 676.625 92.9558 676.625 95.4066C676.625 97.2632 676.958 98.8227 677.623 100.085C678.363 101.348 679.324 102.387 680.507 103.204C681.69 103.947 682.984 104.504 684.388 104.875C685.867 105.172 687.346 105.321 688.824 105.321C691.486 105.321 693.852 104.875 695.922 103.984C697.992 103.019 699.73 101.756 701.134 100.197C702.539 98.5628 703.611 96.7062 704.35 94.6268C705.09 92.5474 705.459 90.3566 705.459 88.0544V84.1555H703.241Z" fill="black"/>
<path d="M738.749 58.0888C738.897 59.4999 739.008 61.0594 739.082 62.7675C739.156 64.4756 739.193 65.8866 739.193 67.0005H739.415C740.893 63.9557 743.296 61.505 746.623 59.6484C749.95 57.7175 753.462 56.7521 757.159 56.7521C763.739 56.7521 768.656 58.7201 771.909 62.6561C775.236 66.5921 776.899 71.7906 776.899 78.2515V110.222H769.358V81.3706C769.358 78.6229 769.136 76.135 768.692 73.9071C768.249 71.6792 767.473 69.7854 766.364 68.2259C765.328 66.5921 763.887 65.3296 762.038 64.4384C760.264 63.5473 758.009 63.1017 755.273 63.1017C753.277 63.1017 751.318 63.5101 749.396 64.327C747.547 65.1439 745.884 66.4064 744.405 68.1145C742.927 69.7483 741.744 71.8648 740.857 74.4641C739.969 76.9891 739.526 79.9968 739.526 83.4872V110.222H731.984V69.5626C731.984 68.1516 731.948 66.3322 731.874 64.1042C731.8 61.8763 731.689 59.8712 731.541 58.0888H738.749Z" fill="black"/>
</svg>
